<svg version="1.2" xmlns="http://www.w3.org/2000/svg" viewBox="0 0 1000 1000" width="1000" height="1000">
	<title>CN_LinkedIn_New</title>
	<style>
		.s0 { fill: #ffffff } 
		.s1 { fill: #000000 } 
	</style>
	<path id="Shape 1" class="s0" d="m0 160c0-88.4 71.6-160 160-160h680c88.4 0 160 71.6 160 160v680c0 88.4-71.6 160-160 160h-680c-88.4 0-160-71.6-160-160z"/>
	<path id="Shape 3" class="s1" d="m110 230c0-66.3 53.7-120 120-120h540c66.3 0 120 53.7 120 120v540c0 66.3-53.7 120-120 120h-540c-66.3 0-120-53.7-120-120z"/>
	<path id="Shape 1 copy" class="s0" d="m250 330c0-44.2 35.8-80 80-80h340c44.2 0 80 35.8 80 80v340c0 44.2-35.8 80-80 80h-340c-44.2 0-80-35.8-80-80z"/>
	<path id="Shape 4" class="s0" d="m500 500h400v400h-400z"/>
	<path id="Shape 5" class="s1" d="m750 500h140v390h-140z"/>
	<path id="Shape 5 copy" class="s1" d="m500 500h140v390h-140z"/>
	<path id="Shape 5 copy 2" class="s0" d="m400 740h100v160h-100z"/>
	<path id="Shape 5 copy 4" class="s0" d="m400 100h100v160h-100z"/>
	<path id="Shape 5 copy 3" class="s0" d="m740 400h160v100h-160z"/>
	<path id="Shape 6" class="s1" d="m640.3 500l223.3 307.4-113.2 82.3-223.4-307.4z"/>
</svg>